<svg xmlns="http://www.w3.org/2000/svg" version="1.1" xmlns:xlink="http://www.w3.org/1999/xlink" xmlns:svgjs="http://svgjs.dev/svgjs" width="1500" height="208" viewBox="0 0 1500 208"><g transform="matrix(1,0,0,1,-0.9090909090909918,-0.1861211027682259)"><svg viewBox="0 0 396 55" data-background-color="#e8e7d5" preserveAspectRatio="xMidYMid meet" height="208" width="1500" xmlns="http://www.w3.org/2000/svg" xmlns:xlink="http://www.w3.org/1999/xlink"><g id="tight-bounds" transform="matrix(1,0,0,1,0.2400000000000091,0.04921471467429228)"><svg viewBox="0 0 395.52 54.90157057065139" height="54.90157057065139" width="395.52"><g><svg viewBox="0 0 490.7523373497652 68.12063633121018" height="54.90157057065139" width="395.52"><g transform="matrix(1,0,0,1,95.23233734976523,8.04021261510464)"><svg viewBox="0 0 395.52 52.0402111010009" height="52.0402111010009" width="395.52"><g id="textblocktransform"><svg viewBox="0 0 395.52 52.0402111010009" height="52.0402111010009" width="395.52" id="textblock"><g><svg viewBox="0 0 395.52 52.0402111010009" height="52.0402111010009" width="395.52"><g transform="matrix(1,0,0,1,0,0)"><svg width="395.52" viewBox="2.8 -35.15 274.74 36.15" height="52.0402111010009" data-palette-color="#ffdc00"><path d="M23.2-14.5L23.2-14.5 23.15-8Q23.15-7.55 23.45-7.23 23.75-6.9 24.25-6.9L24.25-6.9Q27.3-6.9 29.28-8.1 31.25-9.3 31.25-11.88 31.25-14.45 29.2-15.45L29.2-15.45Q27.55-16.25 25.6-16.25L25.6-16.25Q25.1-16.25 24.6-16.2L24.6-16.2Q23.2-16.1 23.2-14.5ZM23.15-28.25L23.15-28.25 23.2-24.15Q23.2-23.2 24.35-23.2L24.35-23.2Q29.4-23.2 29.4-26.05L29.4-26.05Q29.4-29.35 24.9-29.35L24.9-29.35Q24.6-29.35 24.35-29.35L24.35-29.35Q23.15-29.35 23.15-28.25ZM6.8-34.95L6.8-34.95Q13-35.15 22.3-35.15 31.6-35.15 35.18-34.98 38.75-34.8 41.5-32.2 44.25-29.6 44.25-26.2L44.25-26.2Q44.25-22.05 40.65-20.1L40.65-20.1Q40.3-19.9 40.3-19.63 40.3-19.35 40.65-19.25L40.65-19.25Q43.25-18.55 45.03-16.25 46.8-13.95 46.8-10.8L46.8-10.8Q46.8-6.85 43.75-3.65 40.7-0.45 34.4-0.18 28.1 0.1 25.3 0.1 22.5 0.1 6.6-0.05L6.6-0.05Q5.15-0.05 4.25-0.98 3.35-1.9 3.2-3.1L3.2-3.1Q2.8-7.5 2.8-15.93 2.8-24.35 3.15-30.3L3.15-30.3Q3.3-32.75 4-33.83 4.7-34.9 6.8-34.95ZM80.7-2.6L80.7-2.6Q79.8-0.9 77.57 0.05 75.35 1 72.75 1 70.15 1 68 0.1 65.85-0.8 64.9-2.5L64.9-2.5Q57.4-16.35 50.95-29.7L50.95-29.7Q50.2-31.3 50.2-32.15L50.2-32.15Q50.2-34.85 52.65-34.85L52.65-34.85 67.1-34.95Q68.95-34.95 69.92-34.3 70.9-33.65 71.65-31.7L71.65-31.7 76.5-19.3Q76.8-18.5 77.6-18.5 78.4-18.5 78.8-19.3L78.8-19.3 85.35-33.5Q86-34.85 86.75-35L86.75-35Q87.05-35.05 87.8-35.05L87.8-35.05 93.55-34.95Q94.5-34.95 94.9-34.05L94.9-34.05Q95.05-33.7 95.05-33.2 95.05-32.7 93.92-30.45 92.8-28.2 88.07-17.95 83.35-7.7 80.7-2.6ZM129.65-0.85L129.65-0.85 123.8-7.85Q122.9-8.95 121.95-8.95L121.95-8.95Q120.8-8.95 120.8-7.05L120.8-7.05 120.8-2.3Q120.8-1.4 120-0.85 119.2-0.3 118.1-0.2L118.1-0.2Q114.95 0 110.97 0 107 0 103.45-0.2L103.45-0.2Q101.95-0.3 101.05-1.23 100.15-2.15 100.05-3.3L100.05-3.3Q99.65-7.7 99.65-16.98 99.65-26.25 99.87-29.55 100.1-32.85 100.77-33.93 101.45-35 103.55-35L103.55-35 116.95-35Q118.6-35 119.7-33.7 120.8-32.4 120.8-30.5L120.8-30.5 120.85-24.9Q120.85-23.85 121.4-23.85L121.4-23.85Q121.75-23.85 122.8-24.7L122.8-24.7 132.6-33.85Q133.8-35 135.47-35.02 137.15-35.05 139.05-35.05L139.05-35.05 142.9-35Q143.7-35 144-34.25 144.3-33.5 143.7-32.9L143.7-32.9Q137.95-27.15 132.2-22.25L132.2-22.25Q131.7-21.8 131.7-21.33 131.7-20.85 132.25-20.3L132.25-20.3 134.95-17.6Q137-15.55 138.32-14.25 139.65-12.95 141.45-11.1L141.45-11.1Q145.05-7.4 146.95-5.1L146.95-5.1Q147.95-3.9 147.95-2.65L147.95-2.65Q147.95-2.2 147.8-1.7L147.8-1.7Q147.25 0 145.4 0L145.4 0 131.95 0Q130.4 0 129.65-0.85ZM169.74-26.25L169.74-26.25Q186.04-26.25 186.19-15.65L186.19-15.65Q186.29-11.15 186.29-7.4 186.29-3.65 186.24-2.35 186.19-1.05 185.57-0.48 184.94 0.1 183.14 0.1L183.14 0.1 172.54 0.1Q170.94 0.1 170.34-0.48 169.74-1.05 169.69-2.2L169.69-2.2Q169.69-2.25 169.67-2.38 169.64-2.5 169.64-2.6L169.64-2.6Q166.34 0.8 160.64 0.8L160.64 0.8Q156.69 0.8 153.92-1.18 151.14-3.15 151.14-6.63 151.14-10.1 153.12-12.18 155.09-14.25 157.82-15 160.54-15.75 163.67-15.75 166.79-15.75 169.79-15.15L169.79-15.15 169.79-15.35Q169.79-17.85 168.82-18.95 167.84-20.05 165.67-20.05 163.49-20.05 162.04-19.68 160.59-19.3 159.84-18.9L159.84-18.9Q157.79-17.7 156.99-17.7 156.19-17.7 155.57-18.45 154.94-19.2 154.94-20.78 154.94-22.35 155.52-22.95 156.09-23.55 157.34-24.15L157.34-24.15Q161.69-26.25 169.74-26.25ZM167.39-5.8L167.39-5.8Q169.59-5.8 169.64-6.65L169.64-6.65Q169.74-8.3 169.74-11L169.74-11Q169.74-12.05 168.14-12.05 166.54-12.05 165.54-11.28 164.54-10.5 164.54-9 164.54-7.5 165.37-6.65 166.19-5.8 167.39-5.8ZM220.74-3.05L220.74-3.05Q220.69-1.95 219.79-1.03 218.89-0.1 217.39 0L217.39 0Q214.54 0.2 210.54 0.2 206.54 0.2 203.19 0L203.19 0Q201.69-0.1 200.79-1.03 199.89-1.95 199.84-3.05L199.84-3.05Q199.69-10.65 199.69-16.03 199.69-21.4 199.74-23.9L199.74-23.9Q199.74-25.8 198.04-25.8L198.04-25.8 193.54-25.8Q192.49-25.8 191.84-26.3 191.19-26.8 191.12-28.05 191.04-29.3 191.04-30.65 191.04-32 191.12-32.98 191.19-33.95 191.92-34.48 192.64-35 193.49-35L193.49-35Q199.99-35.1 211.09-35.1 222.19-35.1 226.99-35L226.99-35Q227.84-34.95 228.57-34.45 229.29-33.95 229.37-32.98 229.44-32 229.44-30.7 229.44-29.4 229.39-28.2L229.39-28.2Q229.24-25.95 226.94-25.95L226.94-25.95 222.44-25.95Q220.74-25.95 220.74-24.2L220.74-24.2Q220.89-17.9 220.89-12.8 220.89-7.7 220.74-3.05ZM263.19-2.6L263.19-2.6Q262.29-0.9 260.06 0.05 257.84 1 255.24 1 252.64 1 250.49 0.1 248.34-0.8 247.39-2.5L247.39-2.5Q239.89-16.35 233.44-29.7L233.44-29.7Q232.69-31.3 232.69-32.15L232.69-32.15Q232.69-34.85 235.14-34.85L235.14-34.85 249.59-34.95Q251.44-34.95 252.41-34.3 253.39-33.65 254.14-31.7L254.14-31.7 258.99-19.3Q259.29-18.5 260.09-18.5 260.89-18.5 261.29-19.3L261.29-19.3 267.84-33.5Q268.49-34.85 269.24-35L269.24-35Q269.54-35.05 270.29-35.05L270.29-35.05 276.04-34.95Q276.99-34.95 277.39-34.05L277.39-34.05Q277.54-33.7 277.54-33.2 277.54-32.7 276.41-30.45 275.29-28.2 270.56-17.95 265.84-7.7 263.19-2.6Z" opacity="1" transform="matrix(1,0,0,1,0,0)" fill="#ffdc00" class="wordmark-text-0" data-fill-palette-color="primary" id="text-0"></path></svg></g></svg></g></svg></g></svg></g><g><svg viewBox="0 0 82.94689247388534 68.12063633121018" height="68.12063633121018" width="82.94689247388534"><g><svg xmlns="http://www.w3.org/2000/svg" xmlns:xlink="http://www.w3.org/1999/xlink" version="1.1" x="0" y="0" viewBox="3.0619999999999994 5.375 25.875 21.25" enable-background="new 0 0 32 32" xml:space="preserve" height="68.12063633121018" width="82.94689247388534" class="icon-icon-0" data-fill-palette-color="accent" id="icon-0"><path d="M27.688 5.375v1.094h-4.5V5.375H8.562v1.094h-4.5V5.375h-1v21.25h1v-1.094h4.5v1.094h14.625v-1.094h4.5v1.094h1.25V5.375H27.688zM8.562 24.219h-4.5v-3.125h4.5V24.219zM8.562 19.781h-4.5v-3.125h4.5V19.781zM8.562 15.344h-4.5v-3.125h4.5V15.344zM8.562 10.906h-4.5V7.781h4.5V10.906zM11.747 21.09V10.254l9.382 5.418L11.747 21.09zM27.688 24.219h-4.5v-3.125h4.5V24.219zM27.688 19.781h-4.5v-3.125h4.5V19.781zM27.688 15.344h-4.5v-3.125h4.5V15.344zM27.688 10.906h-4.5V7.781h4.5V10.906z" fill="#ff4136" data-fill-palette-color="accent"></path></svg></g></svg></g></svg></g><defs></defs></svg><rect width="395.52" height="54.90157057065139" fill="none" stroke="none" visibility="hidden"></rect></g></svg></g></svg>