<svg xmlns="http://www.w3.org/2000/svg" version="1.1" xmlns:xlink="http://www.w3.org/1999/xlink" xmlns:svgjs="http://svgjs.dev/svgjs" width="1500" height="257" viewBox="0 0 1500 257"><g transform="matrix(1,0,0,1,-0.9090909090909918,0.21406540647237193)"><svg viewBox="0 0 396 68" data-background-color="#ffffff" preserveAspectRatio="xMidYMid meet" height="257" width="1500" xmlns="http://www.w3.org/2000/svg" xmlns:xlink="http://www.w3.org/1999/xlink"><g id="tight-bounds" transform="matrix(1,0,0,1,0.2400000000000091,-0.056639874086073405)"><svg viewBox="0 0 395.52 68.11327974817216" height="68.11327974817216" width="395.52"><g><svg viewBox="0 0 569.1007638009629 98.00596563934425" height="68.11327974817216" width="395.52"><g><rect width="8.794307585584683" height="98.00596563934425" x="141.7647086091356" y="0" fill="#ffdc00" opacity="1" stroke-width="0" stroke="transparent" fill-opacity="1" class="rect-qz-0" data-fill-palette-color="primary" rx="1%" id="qz-0" data-palette-color="#ffdc00"></rect></g><g transform="matrix(1,0,0,1,173.5807638009629,0.24379593442622394)"><svg viewBox="0 0 395.52000000000004 97.5183737704918" height="97.5183737704918" width="395.52000000000004"><g id="textblocktransform"><svg viewBox="0 0 395.52000000000004 97.5183737704918" height="97.5183737704918" width="395.52000000000004" id="textblock"><g><svg viewBox="0 0 395.52000000000004 97.5183737704918" height="97.5183737704918" width="395.52000000000004"><g transform="matrix(1,0,0,1,0,0)"><svg width="395.52000000000004" viewBox="4 -37 152.49 37.6" height="97.5183737704918" data-palette-color="#ffdc00"><path d="M15.7 0.6L15.7 0.6Q13.45 0.6 11.48-0.23 9.5-1.05 8.2-2.15L8.2-2.15 8.2 0 4 0 4-37 8.5-37 8.5-23.3Q9.5-24.45 11.43-25.53 13.35-26.6 16-26.6L16-26.6Q19-26.6 21.63-25.03 24.25-23.45 25.85-20.48 27.45-17.5 27.45-13.25L27.45-13.25Q27.45-10.15 26.45-7.6 25.45-5.05 23.78-3.23 22.1-1.4 20-0.4 17.9 0.6 15.7 0.6ZM14.5-3.4L14.5-3.4Q16.95-3.4 18.82-4.6 20.7-5.8 21.78-8 22.85-10.2 22.85-13.1L22.85-13.1Q22.85-16.1 21.78-18.25 20.7-20.4 18.93-21.55 17.15-22.7 15-22.7L15-22.7Q12.85-22.7 11.13-21.63 9.4-20.55 8.5-19.3L8.5-19.3 8.5-5.4Q9.65-4.5 11.2-3.95 12.75-3.4 14.5-3.4ZM44.35 0L39.65 0 29.2-24.8 33.3-26.5 42.15-5.1 51-26.5 54.85-24.8 44.35 0ZM80.4-2.5L77.3 0.5 63.85-13.35 63.85 0 59.35 0 59.35-37 63.85-37 63.85-15.85 75.59-26.5 78.2-23.65 68.15-14.75 80.4-2.5ZM94.09 0.6L94.09 0.6Q90.84 0.6 88.19-1.05 85.54-2.7 83.97-5.73 82.39-8.75 82.39-12.85L82.39-12.85Q82.39-16.75 83.97-19.85 85.54-22.95 88.32-24.78 91.09-26.6 94.69-26.6L94.69-26.6Q96.94-26.6 98.77-25.83 100.59-25.05 101.94-23.9L101.94-23.9 101.94-26 106.04-26 106.04-6.3Q106.04-4.4 106.97-3.83 107.89-3.25 108.99-3.25L108.99-3.25 108.04 0.25Q103.24 0.25 102.24-3.65L102.24-3.65Q101.09-2.05 99.12-0.73 97.14 0.6 94.09 0.6ZM95.09-3.4L95.09-3.4Q96.99-3.4 98.69-4.33 100.39-5.25 101.54-6.65L101.54-6.65 101.54-20.6Q100.19-21.55 98.57-22.13 96.94-22.7 95.14-22.7L95.14-22.7Q92.74-22.7 90.92-21.48 89.09-20.25 88.04-18.07 86.99-15.9 86.99-13L86.99-13Q86.99-10.2 88.04-8.03 89.09-5.85 90.94-4.63 92.79-3.4 95.09-3.4ZM124.09 0.6L124.09 0.6Q120.34 0.6 118.17-1.88 115.99-4.35 115.99-8.95L115.99-8.95 115.99-21.15 111.49-21.15 111.49-25.05 116.09-25.05 117.04-33.25 120.49-33.25 120.49-25.05 127.69-25.05 127.69-21.15 120.49-21.15 120.49-8.6Q120.49-5.7 121.72-4.55 122.94-3.4 124.64-3.4L124.64-3.4Q125.89-3.4 127.02-3.8 128.14-4.2 129.09-4.75L129.09-4.75 130.34-1.15Q129.34-0.55 127.64 0.03 125.94 0.6 124.09 0.6ZM145.99 0L141.29 0 130.84-24.8 134.94-26.5 143.79-5.1 152.64-26.5 156.49-24.8 145.99 0Z" opacity="1" transform="matrix(1,0,0,1,0,0)" fill="#ffdc00" class="wordmark-text-0" data-fill-palette-color="primary" id="text-0"></path></svg></g></svg></g></svg></g></svg></g><g transform="matrix(1,0,0,1,0,0.24379593442621683)"><svg viewBox="0 0 118.74296100289297 97.51837377049182" height="97.51837377049182" width="118.74296100289297"><g><svg xmlns="http://www.w3.org/2000/svg" xmlns:xlink="http://www.w3.org/1999/xlink" version="1.1" x="0" y="0" viewBox="3.0619999999999994 5.375 25.875 21.25" enable-background="new 0 0 32 32" xml:space="preserve" height="97.51837377049182" width="118.74296100289297" class="icon-icon-0" data-fill-palette-color="accent" id="icon-0"><path d="M27.688 5.375v1.094h-4.5V5.375H8.562v1.094h-4.5V5.375h-1v21.25h1v-1.094h4.5v1.094h14.625v-1.094h4.5v1.094h1.25V5.375H27.688zM8.562 24.219h-4.5v-3.125h4.5V24.219zM8.562 19.781h-4.5v-3.125h4.5V19.781zM8.562 15.344h-4.5v-3.125h4.5V15.344zM8.562 10.906h-4.5V7.781h4.5V10.906zM11.747 21.09V10.254l9.382 5.418L11.747 21.09zM27.688 24.219h-4.5v-3.125h4.5V24.219zM27.688 19.781h-4.5v-3.125h4.5V19.781zM27.688 15.344h-4.5v-3.125h4.5V15.344zM27.688 10.906h-4.5V7.781h4.5V10.906z" fill="#ff4136" data-fill-palette-color="accent"></path></svg></g></svg></g></svg></g><defs></defs></svg><rect width="395.52" height="68.11327974817216" fill="none" stroke="none" visibility="hidden"></rect></g></svg></g></svg>