<svg xmlns="http://www.w3.org/2000/svg" version="1.1" xmlns:xlink="http://www.w3.org/1999/xlink" xmlns:svgjs="http://svgjs.dev/svgjs" width="1500" height="337" viewBox="0 0 1500 337"><g transform="matrix(1,0,0,1,-0.9090909090909918,0.8583312938340839)"><svg viewBox="0 0 396 89" data-background-color="#ffffff" preserveAspectRatio="xMidYMid meet" height="337" width="1500" xmlns="http://www.w3.org/2000/svg" xmlns:xlink="http://www.w3.org/1999/xlink"><g id="tight-bounds" transform="matrix(1,0,0,1,0.2400000000000091,-0.22668096484045464)"><svg viewBox="0 0 395.52 89.45336192968091" height="89.45336192968091" width="395.52"><g><svg viewBox="0 0 576.5809002896829 130.40326647288194" height="89.45336192968091" width="395.52"><g transform="matrix(1,0,0,1,181.06090028968282,18.022448550159517)"><svg viewBox="0 0 395.52 94.3583693725629" height="94.3583693725629" width="395.52"><g id="textblocktransform"><svg viewBox="0 0 395.52 94.3583693725629" height="94.3583693725629" width="395.52" id="textblock"><g><svg viewBox="0 0 395.52 94.3583693725629" height="94.3583693725629" width="395.52"><g transform="matrix(1,0,0,1,0,0)"><svg width="395.52" viewBox="3.3 -33.13 141.04 33.660000000000004" height="94.3583693725629" data-palette-color="#ffdc00"><path d="M15.33 0.53L15.33 0.53Q13.08 0.53 11.41-0.23 9.75-0.98 8.72-2.38 7.7-3.78 7.35-5.63L7.35-5.63 6-5.63 7.23-9.43Q7.35-7.23 8.26-5.76 9.18-4.3 10.7-3.58 12.23-2.85 14.15-2.85L14.15-2.85Q17.2-2.85 18.81-4.65 20.43-6.45 20.43-10L20.43-10 20.43-14.58Q20.43-18.05 18.8-19.85 17.18-21.65 14.08-21.65L14.08-21.65Q12.23-21.65 10.8-20.93 9.38-20.2 8.44-18.95 7.5-17.7 7.15-16.1L7.15-16.1 6.23-18.93 7.38-18.93Q7.75-20.6 8.71-21.96 9.68-23.33 11.35-24.14 13.03-24.95 15.5-24.95L15.5-24.95Q19.9-24.95 22.2-22.21 24.5-19.48 24.5-14.28L24.5-14.28 24.5-10.23Q24.5-4.98 22.16-2.23 19.83 0.53 15.33 0.53ZM7.18-5.9L7.35 0 3.3 0 3.3-33.13 7.33-33.13 7.33-25.18 7.2-18.18 7.23-17.4 7.23-7.2 7.18-5.9ZM32.15-24.4L38.9-2.78 39.5-2.78 46.25-24.4 50.45-24.4 42.52 0 35.87 0 27.95-24.4 32.15-24.4ZM64.02-13.6L75.55 0 70.7 0 61.05-11.38 58.47-11.38 58.47-14.53 61.05-14.53 70.3-24.4 75.09-24.4 64.02-12.63 64.02-13.6ZM58.87-33.13L58.87 0 54.84 0 54.84-33.13 58.87-33.13ZM98.07-15.8L98.07 0 94.04 0 94.22-5.93 94.07-6.55 94.07-14.33 94.09-15.75Q94.09-18.73 92.58-20.15 91.07-21.58 87.79-21.58L87.79-21.58Q85.17-21.58 82.98-20.83 80.79-20.08 79.09-19.07L79.09-19.07 79.47-22.53Q80.42-23.1 81.73-23.66 83.04-24.23 84.73-24.6 86.42-24.98 88.44-24.98L88.44-24.98Q91.07-24.98 92.91-24.34 94.74-23.7 95.88-22.5 97.02-21.3 97.54-19.6 98.07-17.9 98.07-15.8L98.07-15.8ZM85.64 0.53L85.64 0.53Q82.02 0.53 80.08-1.24 78.14-3 78.14-6.28L78.14-6.28 78.14-7Q78.14-10.38 80.23-12.04 82.32-13.7 86.87-14.35L86.87-14.35 94.59-15.45 94.82-12.5 87.37-11.43Q84.57-11.03 83.37-10.06 82.17-9.1 82.17-7.23L82.17-7.23 82.17-6.83Q82.17-4.9 83.36-3.88 84.54-2.85 86.92-2.85L86.92-2.85Q89.02-2.85 90.52-3.58 92.02-4.3 92.94-5.53 93.87-6.75 94.19-8.25L94.19-8.25 94.82-5.5 94.04-5.5Q93.69-3.9 92.73-2.53 91.77-1.15 90.04-0.31 88.32 0.53 85.64 0.53ZM113.14 0.5L113.14 0.5Q110.32 0.5 108.59-0.35 106.87-1.2 106.09-2.93 105.32-4.65 105.32-7.23L105.32-7.23 105.32-22.63 109.32-22.63 109.32-7.7Q109.32-5.3 110.42-4.16 111.52-3.03 114.12-3.03L114.12-3.03Q115.59-3.03 116.95-3.35 118.32-3.68 119.52-4.28L119.52-4.28 119.14-0.8Q117.97-0.2 116.39 0.15 114.82 0.5 113.14 0.5ZM119.27-24.05L118.89-20.8 101.32-20.8 101.32-24.05 119.27-24.05ZM109.39-31.03L109.22-23.65 105.34-23.65 105.32-30.5 109.39-31.03ZM126.04-24.4L132.79-2.78 133.39-2.78 140.14-24.4 144.34-24.4 136.41 0 129.76 0 121.84-24.4 126.04-24.4Z" opacity="1" transform="matrix(1,0,0,1,0,0)" fill="#ffdc00" class="wordmark-text-0" data-fill-palette-color="primary" id="text-0"></path></svg></g></svg></g></svg></g></svg></g><g><svg viewBox="0 0 158.78515388168566 130.40326647288194" height="130.40326647288194" width="158.78515388168566"><g><svg xmlns="http://www.w3.org/2000/svg" xmlns:xlink="http://www.w3.org/1999/xlink" version="1.1" x="0" y="0" viewBox="3.0619999999999994 5.375 25.875 21.25" enable-background="new 0 0 32 32" xml:space="preserve" height="130.40326647288194" width="158.78515388168566" class="icon-icon-0" data-fill-palette-color="accent" id="icon-0"><path d="M27.688 5.375v1.094h-4.5V5.375H8.562v1.094h-4.5V5.375h-1v21.25h1v-1.094h4.5v1.094h14.625v-1.094h4.5v1.094h1.25V5.375H27.688zM8.562 24.219h-4.5v-3.125h4.5V24.219zM8.562 19.781h-4.5v-3.125h4.5V19.781zM8.562 15.344h-4.5v-3.125h4.5V15.344zM8.562 10.906h-4.5V7.781h4.5V10.906zM11.747 21.09V10.254l9.382 5.418L11.747 21.09zM27.688 24.219h-4.5v-3.125h4.5V24.219zM27.688 19.781h-4.5v-3.125h4.5V19.781zM27.688 15.344h-4.5v-3.125h4.5V15.344zM27.688 10.906h-4.5V7.781h4.5V10.906z" fill="#f84e45" data-fill-palette-color="accent"></path></svg></g></svg></g></svg></g><defs></defs></svg><rect width="395.52" height="89.45336192968091" fill="none" stroke="none" visibility="hidden"></rect></g></svg></g></svg>