<svg xmlns="http://www.w3.org/2000/svg" version="1.1" xmlns:xlink="http://www.w3.org/1999/xlink" xmlns:svgjs="http://svgjs.dev/svgjs" width="1500" height="526" viewBox="0 0 1500 526"><g transform="matrix(1,0,0,1,-0.9090866147254246,0.019915624744101024)"><svg viewBox="0 0 396 139" data-background-color="#ffffff" preserveAspectRatio="xMidYMid meet" height="526" width="1500" xmlns="http://www.w3.org/2000/svg" xmlns:xlink="http://www.w3.org/1999/xlink"><g id="tight-bounds" transform="matrix(1,0,0,1,0.23999886628752165,-0.005262874219454261)"><svg viewBox="0 0 395.52 139.0104492009293" height="139.0104492009293" width="395.52"><g><svg viewBox="0 0 695.469240355161 244.43135999999998" height="139.0104492009293" width="395.52"><g transform="matrix(1,0,0,1,299.94924035516095,75.18177536322118)"><svg viewBox="0 0 395.52 94.06780927355763" height="94.06780927355763" width="395.52"><g id="textblocktransform"><svg viewBox="0 0 395.52 94.06780927355763" height="94.06780927355763" width="395.52" id="textblock"><g><svg viewBox="0 0 395.52 94.06780927355763" height="94.06780927355763" width="395.52"><g transform="matrix(1,0,0,1,0,0)"><svg width="395.52" viewBox="4.67 -34.68 145.78994234220002 34.68" height="94.06780927355763" data-palette-color="#fbeaab"><path d="M6 0L6 0Q4.67 0 4.67-1.33L4.67-1.33 4.67-33.38Q4.67-34.68 6-34.68L6-34.68Q7.3-34.68 7.3-33.38L7.3-33.38 7.3-20.15Q8.43-21.88 10.51-22.78 12.6-23.68 15.9-23.68L15.9-23.68 17.8-23.68Q22.48-23.68 24.64-21.5 26.8-19.33 26.8-14.65L26.8-14.65 26.8-9.03Q26.8-4.35 24.64-2.18 22.48 0 17.8 0L17.8 0 15.9 0Q12.6 0 10.51-0.89 8.43-1.78 7.3-3.53L7.3-3.53 7.3-1.33Q7.3 0 6 0ZM15.9-2.63L15.9-2.63 17.8-2.63Q21.38-2.63 22.78-4.04 24.18-5.45 24.18-9.03L24.18-9.03 24.18-14.65Q24.18-18.23 22.76-19.64 21.35-21.05 17.8-21.05L17.8-21.05 15.9-21.05Q12-21.05 9.65-19.83 7.3-18.6 7.3-16.1L7.3-16.1 7.3-7.48Q7.35-5.05 9.7-3.84 12.05-2.63 15.9-2.63ZM53.47-21.75L43.55-1Q43.27-0.4 42.87-0.2 42.47 0 41.95 0L41.95 0Q40.85 0 40.4-1.03L40.4-1.03 31.12-21.8Q30.6-23.03 31.85-23.5L31.85-23.5Q33.02-24 33.55-22.8L33.55-22.8 42.8-2.1 41.2-2.1 51.05-22.83Q51.32-23.4 51.77-23.58 52.22-23.75 52.8-23.5L52.8-23.5Q54.02-22.95 53.47-21.75L53.47-21.75ZM60.82 0L60.82 0Q59.5 0 59.5-1.33L59.5-1.33 59.5-33.38Q59.5-34.68 60.82-34.68L60.82-34.68Q62.12-34.68 62.12-33.38L62.12-33.38 62.12-12.6 74.82-23.5Q75.77-24.35 76.65-23.38L76.65-23.38Q77.5-22.4 76.52-21.53L76.52-21.53 67.32-13.6 77.32-2.25Q78.2-1.28 77.2-0.4L77.2-0.4Q76.25 0.45 75.37-0.53L75.37-0.53 65.3-11.88 62.12-9.15 62.12-1.33Q62.12 0 60.82 0ZM93.27 0L90.47 0Q86.57 0 84.76-1.81 82.94-3.63 82.94-7.53L82.94-7.53Q82.94-11.43 84.77-13.25 86.59-15.08 90.47-15.08L90.47-15.08 101.84-15.08Q101.79-18.38 100.36-19.69 98.92-21 95.47-21L95.47-21 92.57-21Q89.39-21 87.92-20.33 86.44-19.65 86.09-18.03L86.09-18.03Q85.92-17.4 85.63-17.11 85.34-16.82 84.72-16.82L84.72-16.82Q84.07-16.82 83.71-17.19 83.34-17.55 83.44-18.18L83.44-18.18Q83.77-21.03 86.03-22.33 88.29-23.63 92.57-23.63L92.57-23.63 95.47-23.63Q100.14-23.63 102.31-21.46 104.47-19.3 104.47-14.63L104.47-14.63 104.47-1.33Q104.47 0 103.17 0L103.17 0Q101.84 0 101.84-1.33L101.84-1.33 101.84-3.8Q99.44 0 93.27 0L93.27 0ZM90.47-2.63L90.47-2.63 93.27-2.63Q95.69-2.63 97.53-3.16 99.37-3.7 100.49-4.9 101.62-6.1 101.84-8.1L101.84-8.1 101.84-12.45 90.47-12.45Q87.69-12.45 86.63-11.39 85.57-10.33 85.57-7.53L85.57-7.53Q85.57-4.75 86.63-3.69 87.69-2.63 90.47-2.63ZM123.02 0L123.02 0Q118.42 0 116.29-2.13 114.17-4.25 114.17-8.83L114.17-8.83 114.17-21 111.19-21Q109.87-21 109.87-22.33L109.87-22.33Q109.87-23.63 111.19-23.63L111.19-23.63 114.17-23.63 114.17-29Q114.17-30.33 115.47-30.33L115.47-30.33Q116.79-30.33 116.79-29L116.79-29 116.79-23.63 123.07-23.63Q124.37-23.63 124.37-22.33L124.37-22.33Q124.37-21 123.07-21L123.07-21 116.79-21 116.79-8.83Q116.79-5.33 118.15-3.98 119.52-2.63 123.02-2.63L123.02-2.63Q123.74-2.63 124.05-2.3 124.37-1.98 124.37-1.33L124.37-1.33Q124.37 0 123.02 0ZM150.29-21.75L140.36-1Q140.09-0.4 139.69-0.2 139.29 0 138.76 0L138.76 0Q137.66 0 137.21-1.03L137.21-1.03 127.94-21.8Q127.41-23.03 128.66-23.5L128.66-23.5Q129.84-24 130.36-22.8L130.36-22.8 139.61-2.1 138.01-2.1 147.86-22.83Q148.14-23.4 148.59-23.58 149.04-23.75 149.61-23.5L149.61-23.5Q150.84-22.95 150.29-21.75L150.29-21.75Z" opacity="1" transform="matrix(1,0,0,1,0,0)" fill="#fbeaab" class="wordmark-text-0" data-fill-palette-color="primary" id="text-0"></path></svg></g></svg></g></svg></g></svg></g><g><svg viewBox="0 0 244.43135999999998 244.43135999999998" height="244.43135999999998" width="244.43135999999998"><g><svg viewBox="0 0 244.43135999999998 244.43135999999998" height="244.43135999999998" width="244.43135999999998"><g transform="matrix(1,0,0,1,64.60265593644992,79.00591195233744)"><svg viewBox="0 0 115.22604812710014 86.4195360953251" height="86.4195360953251" width="115.22604812710014"><g><svg xmlns="http://www.w3.org/2000/svg" xmlns:xlink="http://www.w3.org/1999/xlink" version="1.1" x="0" y="0" viewBox="0 64 512 384" enable-background="new 0 0 512 512" xml:space="preserve" height="86.4195360953251" width="115.22604812710014" class="icon-cg-0" data-fill-palette-color="accent" id="cg-0"><path d="M352 256l-192 96V160L352 256zM0 64v384h512V64H0zM64 416H32v-64h32V416zM64 288H32v-64h32V288zM64 160H32V96h32V160zM416 416H96V96h320V416zM480 416h-32v-64h32V416zM480 288h-32v-64h32V288zM480 160h-32V96h32V160z" fill="#fbeaab" data-fill-palette-color="accent"></path></svg></g></svg></g><g id="text-0"><path d="M28.809 94.911v0c-0.251 0.706-0.73 0.934-1.436 0.683v0l-25.62-9.104c-0.694-0.247-0.915-0.723-0.664-1.429v0c0.247-0.694 0.717-0.917 1.41-0.671v0l10.578 3.759c-0.708-0.926-1.104-2.03-1.19-3.311-0.083-1.287 0.188-2.807 0.811-4.56v0l0.541-1.523c0.885-2.491 2.11-4.109 3.675-4.853 1.568-0.736 3.598-0.661 6.089 0.224v0l4.494 1.597c2.491 0.885 4.113 2.108 4.866 3.669 0.75 1.567 0.683 3.596-0.202 6.087v0l-0.541 1.523c-0.623 1.753-1.369 3.104-2.239 4.052-0.867 0.942-1.874 1.547-3.021 1.815v0l1.76 0.625c0.706 0.251 0.936 0.723 0.689 1.417zM29.52 86.255v0l0.541-1.523c0.677-1.905 0.772-3.363 0.286-4.373-0.484-1.017-1.681-1.865-3.593-2.545v0l-4.494-1.597c-1.905-0.677-3.367-0.77-4.386-0.28-1.024 0.482-1.872 1.669-2.544 3.561v0l-0.541 1.523c-0.737 2.075-1.001 3.857-0.791 5.345 0.206 1.48 0.977 2.457 2.314 2.932v0l6.888 2.448c1.302 0.434 2.501 0.139 3.596-0.885 1.087-1.02 1.995-2.555 2.724-4.606z" fill="#fbeaab" data-fill-palette-color="accent"></path><path d="M55.12 28.078l5.037 18.856c0.1 0.354 0.101 0.649 0.002 0.884-0.099 0.234-0.261 0.447-0.485 0.638v0c-0.473 0.404-0.996 0.468-1.567 0.19v0l-17.429-8.289c-0.672-0.333-0.829-0.832-0.473-1.497v0c0.321-0.644 0.818-0.804 1.491-0.481v0l17.366 8.263-1.031 0.88-5.063-18.795c-0.091-0.354-0.072-0.651 0.056-0.893 0.128-0.242 0.36-0.413 0.696-0.514v0c0.734-0.213 1.2 0.04 1.4 0.758z" fill="#fbeaab" data-fill-palette-color="accent"></path><path d="M97.06 28.623v0c-0.728 0.179-1.181-0.096-1.36-0.824v0l-6.479-26.407c-0.175-0.715 0.101-1.162 0.829-1.34v0c0.715-0.175 1.16 0.094 1.335 0.809v0l4.199 17.114 8.26-11.549c0.407-0.589 0.916-0.676 1.528-0.261v0c0.599 0.418 0.688 0.934 0.266 1.548v0l-5.974 8.392 10.535 7.33c0.612 0.415 0.701 0.931 0.265 1.547v0c-0.405 0.596-0.914 0.686-1.525 0.271v0l-10.593-7.315-2.063 2.884 1.582 6.446c0.179 0.728-0.09 1.18-0.805 1.355z" fill="#fbeaab" data-fill-palette-color="accent"></path><path d="M150.368 29.03l-2.298-0.579c-2.142-0.54-3.584-1.432-4.327-2.676-0.743-1.243-0.844-2.936-0.303-5.078v0c0.539-2.135 1.434-3.577 2.685-4.324 1.253-0.754 2.944-0.862 5.073-0.325v0l9.356 2.359c0.424-1.819 0.334-3.185-0.272-4.096-0.61-0.92-1.86-1.618-3.748-2.095v0l-2.385-0.602c-1.739-0.439-3.061-0.575-3.966-0.41-0.905 0.165-1.563 0.669-1.976 1.511v0c-0.184 0.319-0.374 0.537-0.569 0.654-0.195 0.116-0.465 0.131-0.808 0.045v0c-0.357-0.09-0.612-0.258-0.764-0.504-0.144-0.25-0.147-0.541-0.008-0.871v0c0.568-1.514 1.565-2.47 2.992-2.87 1.42-0.401 3.301-0.307 5.644 0.284v0l2.385 0.602c2.564 0.647 4.29 1.713 5.178 3.2 0.883 1.479 1.002 3.501 0.355 6.065v0l-2.759 10.942c-0.183 0.727-0.629 1.001-1.337 0.823v0c-0.727-0.183-0.999-0.638-0.815-1.365v0l0.513-2.035c-1.843 1.751-4.458 2.2-7.846 1.345zM148.615 26.29v0l2.298 0.579c1.331 0.336 2.536 0.484 3.615 0.446 1.081-0.045 2.016-0.316 2.805-0.815 0.782-0.5 1.373-1.283 1.772-2.349v0l0.904-3.583-9.356-2.359c-1.525-0.385-2.654-0.359-3.385 0.078-0.725 0.438-1.281 1.424-1.667 2.956v0c-0.385 1.525-0.361 2.65 0.071 3.372 0.437 0.731 1.418 1.289 2.943 1.675z" fill="#fbeaab" data-fill-palette-color="accent"></path><path d="M194.321 55.036v0c-1.916-1.754-2.911-3.482-2.986-5.184-0.075-1.693 0.763-3.495 2.512-5.405v0l6.97-7.613-1.867-1.709c-0.553-0.506-0.576-1.036-0.07-1.588v0c0.497-0.543 1.022-0.562 1.575-0.056v0l1.867 1.709 3.078-3.362c0.506-0.553 1.028-0.583 1.566-0.091v0c0.553 0.506 0.576 1.036 0.07 1.589v0l-3.078 3.362 3.933 3.6c0.538 0.493 0.559 1.011 0.061 1.554v0c-0.506 0.553-1.028 0.583-1.566 0.09v0l-3.933-3.6-6.969 7.613c-1.338 1.461-1.981 2.733-1.929 3.816 0.057 1.087 0.814 2.297 2.271 3.631v0c0.306 0.28 0.46 0.548 0.462 0.804 0.006 0.251-0.115 0.512-0.363 0.784v0c-0.506 0.553-1.041 0.572-1.604 0.056z" fill="#fbeaab" data-fill-palette-color="accent"></path><path d="M236.076 91.377l-19.461-1.483c-0.368-0.023-0.646-0.12-0.835-0.29-0.188-0.171-0.336-0.394-0.442-0.669v0c-0.225-0.58-0.112-1.094 0.34-1.542v0l13.587-13.706c0.536-0.524 1.06-0.507 1.569 0.049v0c0.502 0.516 0.488 1.038-0.039 1.565v0l-13.542 13.657-0.49-1.264 19.412 1.438c0.364 0.031 0.639 0.147 0.824 0.348 0.186 0.201 0.271 0.477 0.256 0.827v0c-0.042 0.763-0.435 1.12-1.179 1.07z" fill="#fbeaab" data-fill-palette-color="accent"></path><path d="M9.353 161.964v0c-0.276-0.761-0.037-1.279 0.718-1.553v0l27.513-9.981c0.743-0.269 1.252-0.023 1.528 0.738v0c0.269 0.743 0.033 1.248-0.709 1.518v0l-11.355 4.119c1.221 0.283 2.306 0.929 3.256 1.938 0.95 1.008 1.767 2.456 2.451 4.344v0l0.589 1.623c0.97 2.674 1.057 4.857 0.261 6.549-0.796 1.692-2.531 3.022-5.205 3.993v0l-4.823 1.749c-2.674 0.97-4.859 1.061-6.555 0.274-1.696-0.788-3.028-2.519-3.999-5.193v0l-0.589-1.623c-0.685-1.888-0.989-3.522-0.913-4.902 0.07-1.378 0.491-2.571 1.265-3.578v0l-1.897 0.688c-0.755 0.274-1.267 0.04-1.536-0.703zM14.69 169.64v0l0.589 1.624c0.742 2.045 1.662 3.324 2.759 3.837 1.102 0.505 2.675 0.386 4.72-0.355v0l4.823-1.75c2.045-0.742 3.327-1.663 3.847-2.763 0.511-1.104 0.398-2.672-0.339-4.704v0l-0.589-1.624c-0.81-2.234-1.809-3.897-2.996-4.99-1.191-1.085-2.501-1.368-3.929-0.85v0l-7.4 2.685c-1.381 0.53-2.174 1.593-2.378 3.191-0.204 1.598 0.094 3.498 0.893 5.7z" fill="#fbeaab" data-fill-palette-color="accent"></path><path d="M67.641 208.933l-19.144 8.643c-0.365 0.174-0.679 0.229-0.94 0.165-0.267-0.068-0.521-0.203-0.762-0.405v0c-0.512-0.431-0.672-0.974-0.48-1.627v0l5.745-19.963c0.243-0.776 0.746-1.03 1.51-0.763v0c0.742 0.231 1 0.729 0.776 1.495v0l-5.723 19.89-1.114-0.939 19.063-8.67c0.357-0.163 0.674-0.198 0.953-0.103 0.275 0.1 0.497 0.319 0.669 0.656v0c0.357 0.739 0.173 1.28-0.553 1.621z" fill="#fbeaab" data-fill-palette-color="accent"></path><path d="M92.109 241.061v0c-0.787-0.192-1.085-0.678-0.895-1.458v0l6.926-28.437c0.187-0.767 0.674-1.055 1.46-0.864v0c0.767 0.187 1.058 0.664 0.871 1.432v0l-4.488 18.428 13.612-6.926c0.688-0.363 1.218-0.192 1.591 0.512v0c0.368 0.696 0.199 1.233-0.507 1.612v0l-9.866 5.038 6.416 12.227c0.373 0.704 0.2 1.244-0.519 1.62v0c-0.681 0.365-1.212 0.194-1.591-0.511v0l-6.483-12.244-3.399 1.735-1.692 6.946c-0.19 0.78-0.669 1.077-1.436 0.89z" fill="#fbeaab" data-fill-palette-color="accent"></path><path d="M155.546 240.578l-2.474 0.621c-2.305 0.578-4.127 0.466-5.467-0.336-1.334-0.804-2.289-2.355-2.866-4.654v0c-0.578-2.305-0.464-4.131 0.344-5.479 0.801-1.347 2.347-2.307 4.639-2.883v0l10.069-2.526c-0.515-1.941-1.294-3.191-2.338-3.751-1.044-0.559-2.586-0.583-4.625-0.071v0l-2.561 0.642c-1.876 0.471-3.2 1.013-3.97 1.628-0.771 0.614-1.139 1.428-1.106 2.441v0c-0.011 0.396-0.08 0.7-0.206 0.911-0.126 0.211-0.375 0.363-0.745 0.456v0c-0.383 0.096-0.709 0.064-0.977-0.097-0.268-0.16-0.419-0.433-0.453-0.817v0c-0.227-1.73 0.229-3.146 1.367-4.246 1.145-1.102 2.981-1.969 5.506-2.603v0l2.561-0.643c2.759-0.692 4.939-0.559 6.539 0.399 1.598 0.952 2.744 2.807 3.436 5.566v0l2.957 11.784c0.195 0.779-0.09 1.265-0.856 1.457v0c-0.786 0.197-1.276-0.094-1.472-0.873v0l-0.552-2.201c-0.852 2.602-3.102 4.36-6.75 5.275zM152.488 238.871v0l2.473-0.62c1.435-0.36 2.654-0.835 3.659-1.426 1.006-0.584 1.751-1.316 2.234-2.196 0.491-0.875 0.654-1.917 0.489-3.124v0l-0.968-3.857-10.069 2.527c-1.643 0.412-2.696 1.011-3.162 1.797-0.473 0.781-0.502 2-0.087 3.656v0c0.411 1.636 1.01 2.69 1.798 3.161 0.78 0.467 1.991 0.494 3.633 0.082z" fill="#fbeaab" data-fill-palette-color="accent"></path><path d="M208.411 209.797v0c-2.071 1.882-4.018 2.779-5.844 2.691-1.825-0.087-3.674-1.161-5.546-3.221v0l-7.475-8.226-2.014 1.83c-0.594 0.54-1.164 0.511-1.709-0.089v0c-0.531-0.585-0.5-1.147 0.095-1.687v0l2.014-1.83-3.302-3.634c-0.54-0.594-0.518-1.157 0.066-1.688v0c0.594-0.54 1.162-0.513 1.702 0.081v0l3.302 3.634 4.243-3.856c0.585-0.531 1.142-0.505 1.674 0.08v0c0.545 0.599 0.525 1.165-0.06 1.696v0l-4.243 3.856 7.475 8.225c1.432 1.575 2.731 2.388 3.9 2.44 1.163 0.046 2.533-0.647 4.108-2.078v0c0.327-0.297 0.63-0.437 0.908-0.419 0.269 0.018 0.539 0.175 0.809 0.473v0c0.54 0.594 0.506 1.169-0.103 1.722z" fill="#fbeaab" data-fill-palette-color="accent"></path><path d="M219.794 151.848l14.258 15.424c0.28 0.291 0.432 0.571 0.455 0.84 0.02 0.275-0.027 0.558-0.144 0.85v0c-0.247 0.622-0.711 0.946-1.39 0.971v0l-20.756 0.869c-0.813 0.015-1.213-0.381-1.201-1.19v0c-0.015-0.777 0.375-1.18 1.172-1.209v0l20.679-0.868-0.538 1.353-14.26-15.337c-0.268-0.287-0.401-0.577-0.399-0.872 0.008-0.292 0.145-0.573 0.41-0.842v0c0.588-0.573 1.159-0.569 1.714 0.011z" fill="#fbeaab" data-fill-palette-color="accent"></path><path d="M2.877 124.735c0-6.207 5.031-11.238 11.238-11.238 6.207 0 11.238 5.031 11.238 11.238 0 6.207-5.031 11.238-11.238 11.238-6.207 0-11.238-5.031-11.238-11.238z" fill="#fbeaab" data-fill-palette-color="accent"></path><path d="M220.967 124.735c0-6.207 5.031-11.238 11.238-11.238 6.207 0 11.238 5.031 11.237 11.238 0 6.207-5.031 11.238-11.237 11.238-6.207 0-11.238-5.031-11.238-11.238z" fill="#fbeaab" data-fill-palette-color="accent"></path></g><g id="text-1"></g></svg></g></svg></g></svg></g><defs></defs></svg><rect width="395.52" height="139.0104492009293" fill="none" stroke="none" visibility="hidden"></rect></g></svg></g></svg>